{"glyphs":{"0":{"ha":1267,"x_min":0,"x_max":1024,"o":"m 513 -278 q 297 -231 392 -278 q 135 -97 201 -185 q 35 118 69 -8 q 0 404 0 244 q 4 526 0 490 q 8 564 8 561 l 89 549 q 85 515 89 547 q 82 404 82 483 q 87 297 82 358 q 107 168 92 235 q 151 36 122 101 q 228 -81 181 -29 q 346 -164 276 -132 q 513 -196 415 -196 q 679 -163 610 -196 q 796 -78 749 -131 q 872 41 843 -25 q 917 175 901 107 q 937 306 932 243 q 942 415 942 369 q 511 1029 942 1013 q 387 1013 442 1032 q 290 961 332 993 q 217 888 247 929 q 165 807 186 847 q 130 731 143 767 q 111 672 117 694 l 813 282 l 774 211 l 44 615 l 25 658 q 29 680 25 660 q 44 732 33 700 q 72 805 54 764 q 115 888 89 846 q 287 1058 186 1001 q 514 1111 388 1115 q 894 926 765 1101 q 1024 415 1024 750 q 989 124 1024 253 q 888 -94 954 -4 q 728 -231 822 -183 q 513 -278 633 -278 z "},"1":{"ha":1286,"x_min":438,"x_max":849,"o":"m 761 -278 l 758 717 q 679 626 724 661 q 595 581 638 593 q 519 565 553 568 q 462 567 485 563 q 438 571 439 571 l 460 656 l 449 614 l 458 656 q 476 653 460 656 q 515 652 492 650 q 569 663 539 654 q 628 696 599 672 q 725 851 692 746 q 758 1111 758 957 l 844 1111 l 849 -278 l 761 -278 z "},"2":{"ha":1286,"x_min":181,"x_max":1097,"o":"m 1071 -278 l 232 -278 l 192 -246 q 212 -125 181 -197 q 307 26 243 -53 q 464 182 371 104 q 671 319 557 260 q 840 419 779 376 q 931 497 900 463 q 969 560 961 531 q 982 617 978 589 l 985 633 q 989 678 986 646 q 988 754 992 711 q 969 844 985 797 q 921 931 954 890 q 654 1029 838 1029 q 400 935 492 1029 q 336 838 358 890 q 305 738 314 785 q 295 660 296 692 q 294 629 294 629 l 213 625 q 213 667 213 629 q 226 758 214 704 q 264 875 238 813 q 342 992 290 938 q 654 1111 457 1111 q 983 983 875 1111 q 1044 879 1025 935 q 1069 773 1063 824 q 1072 681 1075 722 q 1065 621 1068 640 l 1063 604 q 1042 525 1056 564 q 993 444 1029 486 q 890 354 957 403 q 710 246 824 306 q 534 131 611 193 q 402 8 457 69 q 315 -107 347 -53 q 274 -196 282 -161 l 958 -196 l 663 54 l 715 117 l 1097 -206 l 1071 -278 z "},"3":{"ha":1286,"x_min":157,"x_max":1129,"o":"m 594 -278 q 410 -240 485 -276 q 286 -149 335 -203 q 211 -32 238 -94 q 173 85 185 31 q 159 175 161 139 q 157 213 157 211 l 239 211 q 241 176 239 207 q 253 100 243 144 q 284 4 263 56 q 345 -91 306 -47 q 445 -165 385 -135 q 594 -196 506 -194 q 798 -162 711 -199 q 942 -57 885 -126 q 1013 76 990 3 q 1043 219 1036 149 q 1046 349 1050 289 q 1038 442 1042 408 l 589 442 l 589 524 q 878 638 781 524 q 938 740 917 683 q 969 850 960 796 q 979 952 979 904 q 978 1029 979 1000 l 349 1029 l 667 804 l 619 738 l 197 1038 l 221 1111 l 1015 1111 l 1056 1076 q 1058 1049 1056 1074 q 1062 985 1061 1024 q 1058 895 1063 946 q 1042 791 1054 844 q 1005 684 1029 738 q 940 585 981 631 q 875 524 911 549 l 1072 524 l 1113 490 q 1118 456 1113 486 q 1126 378 1124 426 q 1128 269 1129 331 q 1115 143 1126 208 q 1076 13 1103 78 q 1004 -108 1050 -53 q 833 -237 935 -193 q 594 -278 731 -281 z "},"4":{"ha":1286,"x_min":165,"x_max":1121,"o":"m 931 -278 l 847 -278 l 847 31 l 207 31 l 165 72 l 165 592 q 304 1014 165 878 q 380 1069 342 1050 q 449 1098 418 1089 q 501 1108 481 1107 q 524 1110 521 1110 l 889 1111 l 931 1069 l 931 114 l 1121 114 l 1121 31 l 931 31 l 931 -278 m 249 114 l 847 114 l 847 1028 l 522 1025 q 506 1024 521 1025 q 467 1016 490 1022 q 417 994 444 1010 q 361 953 389 979 q 249 592 249 840 l 249 114 z "},"5":{"ha":1286,"x_min":171,"x_max":1115,"o":"m 644 -278 q 548 -269 600 -278 q 444 -238 496 -260 q 342 -181 392 -217 q 255 -93 293 -146 q 194 32 217 -40 q 171 197 171 104 l 231 233 l 775 -46 l 738 -118 l 257 128 q 297 -6 267 49 q 367 -96 326 -60 q 452 -152 407 -132 q 537 -182 497 -172 q 606 -194 576 -192 q 644 -196 635 -196 q 687 -193 654 -196 q 763 -176 719 -190 q 854 -135 807 -162 q 942 -58 901 -108 q 1008 67 982 -8 q 1033 250 1033 142 q 1001 397 1033 324 q 915 538 968 469 q 795 670 863 607 q 657 788 728 733 q 518 887 586 842 q 396 965 450 932 q 308 1015 342 997 q 274 1033 275 1032 l 293 1111 l 1024 1110 l 1024 1028 l 449 1029 q 578 947 506 994 q 724 840 650 899 q 869 712 799 781 q 994 568 939 643 q 1082 413 1049 493 q 1115 250 1115 333 q 1098 88 1115 158 q 1053 -36 1081 17 q 993 -125 1026 -89 q 928 -185 960 -161 q 839 -235 883 -217 q 756 -264 794 -254 q 688 -276 718 -274 q 644 -278 658 -278 z "},"6":{"ha":1286,"x_min":165,"x_max":1122,"o":"m 650 -278 l 206 -278 l 165 -237 q 170 146 165 -33 q 191 475 175 325 q 238 743 207 625 q 322 943 268 861 q 453 1068 375 1025 q 643 1111 532 1111 q 851 1073 767 1111 q 990 980 936 1035 q 1071 863 1044 925 q 1103 756 1097 801 l 1021 746 q 1016 771 1021 749 q 997 824 1011 793 q 958 892 983 856 q 890 958 932 928 q 788 1009 849 989 q 643 1029 728 1029 q 500 998 561 1029 q 395 903 439 967 q 323 743 351 840 q 278 514 294 646 q 448 635 349 594 q 651 676 547 676 q 849 635 763 676 q 996 528 936 594 q 1088 376 1056 461 q 1121 201 1119 290 q 1089 14 1122 92 q 1004 -117 1056 -64 q 892 -202 953 -171 q 778 -251 831 -233 q 691 -273 726 -268 q 654 -278 656 -278 l 650 -278 m 247 -196 l 649 -196 q 683 -191 656 -196 q 749 -174 711 -186 q 832 -141 788 -162 q 917 -85 876 -119 l 253 165 q 249 -8 250 82 q 247 -196 247 -97 m 257 251 l 976 -19 q 1023 75 1004 21 q 1039 200 1042 129 q 1000 376 1036 301 q 909 499 964 450 q 786 571 854 547 q 651 594 718 594 q 515 574 582 594 q 393 511 447 553 q 302 408 339 469 q 257 265 265 346 l 257 251 z "},"7":{"ha":1286,"x_min":206,"x_max":1081,"o":"m 479 -278 l 394 -278 q 424 34 394 -114 q 501 313 453 182 q 608 554 549 443 q 730 756 668 665 q 849 914 792 846 q 949 1026 907 982 l 342 1026 l 578 804 l 521 743 l 206 1038 l 235 1111 l 1053 1111 l 1081 1038 q 1034 992 1079 1036 q 922 867 989 949 q 778 670 856 786 q 634 408 700 554 q 524 90 568 263 q 479 -278 479 -83 z "},"8":{"ha":1286,"x_min":197,"x_max":1089,"o":"m 644 413 q 558 419 604 413 q 466 442 513 426 q 376 483 419 457 q 298 547 332 508 q 242 638 264 586 q 219 760 221 690 q 227 830 218 796 q 249 892 236 864 q 272 938 261 919 q 286 960 283 956 l 354 910 q 338 885 347 901 q 321 849 329 869 q 307 808 313 829 q 303 765 301 786 l 304 761 q 331 652 307 697 q 390 578 356 607 q 466 532 425 549 q 544 508 507 515 q 608 498 581 500 q 644 496 636 496 q 670 497 644 496 q 733 506 696 499 q 815 530 771 514 q 896 574 858 546 q 958 647 933 603 q 983 757 983 692 q 964 864 983 819 q 913 938 944 908 q 844 985 882 968 q 767 1012 806 1003 q 697 1024 729 1021 q 644 1026 664 1026 q 540 1017 589 1026 q 456 999 492 1008 l 847 649 l 792 586 l 346 982 l 357 1053 q 383 1063 358 1054 q 446 1083 407 1072 q 536 1102 485 1093 q 644 1111 588 1111 q 792 1092 717 1111 q 929 1032 868 1074 q 1029 922 990 990 q 1068 757 1068 854 q 1047 637 1068 689 q 990 547 1025 585 q 911 483 956 508 q 819 441 867 457 q 726 419 772 425 q 644 413 681 413 m 643 369 q 783 347 718 369 q 898 287 849 325 q 976 197 947 249 q 1004 88 1004 146 q 976 -22 1004 29 q 898 -110 947 -72 q 783 -171 849 -149 q 643 -193 718 -193 q 503 -171 568 -193 q 388 -110 438 -149 q 310 -22 339 -72 q 282 88 282 29 q 310 197 282 146 q 388 287 339 249 q 503 347 438 325 q 643 369 568 369 l 643 369 m 643 454 q 470 426 551 454 q 328 347 389 397 q 233 231 268 297 q 197 88 197 164 q 233 -54 197 13 q 328 -171 268 -121 q 470 -249 389 -221 q 643 -278 551 -278 q 816 -249 735 -278 q 958 -171 897 -221 q 1053 -54 1018 -121 q 1089 88 1089 13 q 1053 231 1089 164 q 958 347 1018 297 q 816 426 897 397 q 643 454 735 454 z "},"9":{"ha":1286,"x_min":164,"x_max":1121,"o":"m 643 -278 q 435 -240 519 -278 q 296 -147 350 -201 q 215 -30 242 -92 q 183 78 189 32 l 265 88 q 270 63 265 85 q 289 9 275 40 q 328 -58 303 -22 q 396 -125 354 -94 q 498 -176 438 -156 q 643 -196 558 -196 q 786 -165 725 -196 q 891 -70 847 -133 q 963 90 935 -7 q 1008 319 992 188 q 838 198 938 239 q 635 157 739 157 q 437 198 524 157 q 290 306 350 239 q 199 458 231 372 q 165 632 167 543 q 197 819 164 742 q 282 951 231 897 q 394 1035 333 1004 q 508 1084 456 1067 q 595 1106 560 1101 q 632 1111 631 1111 l 636 1111 l 1081 1111 l 1121 1071 q 1116 688 1121 867 q 1095 358 1111 508 q 1049 90 1079 208 q 965 -110 1018 -28 q 833 -235 911 -192 q 643 -278 754 -278 m 310 853 q 263 758 282 813 q 247 633 244 704 q 286 458 250 532 q 377 335 322 383 q 500 263 432 286 q 635 239 568 239 q 772 260 704 239 q 893 322 839 281 q 984 425 947 364 q 1029 568 1021 486 l 1029 582 l 310 853 m 369 918 l 1033 668 q 1038 840 1036 751 q 1039 1029 1039 929 l 638 1029 q 603 1024 631 1029 q 537 1008 575 1019 q 454 974 499 996 q 369 918 410 953 z "},"\u0000":{"ha":615,"x_min":0,"x_max":0,"o":""},"\r":{"ha":615,"x_min":0,"x_max":0,"o":""}," ":{"ha":615,"x_min":0,"x_max":0,"o":""},"!":{"ha":271,"x_min":0,"x_max":163,"o":"m 125 1111 l 82 31 l 38 1111 l 125 1111 m 43 -235 l 43 -158 l 119 -158 l 119 -235 l 43 -235 m 163 -115 l 0 -115 l 0 -278 l 163 -278 l 163 -115 l 163 -115 z "},"\"":{"ha":1660,"x_min":1010,"x_max":1496,"o":"m 1494 1053 l 1482 1053 l 1433 843 l 1306 900 l 1368 1168 l 1369 1168 l 1369 1226 l 1494 1226 l 1494 1113 l 1496 1111 l 1494 1108 l 1494 1053 m 1200 1053 l 1186 1053 l 1138 843 l 1010 900 l 1074 1168 l 1074 1168 l 1074 1226 l 1200 1226 l 1200 1113 l 1200 1111 l 1200 1108 l 1200 1053 z "},"#":{"ha":931,"x_min":301,"x_max":788,"o":"m 642 213 q 669 376 658 288 q 676 565 679 464 l 422 565 q 415 376 425 464 q 389 213 406 288 l 642 213 m 788 565 l 693 565 q 688 376 697 464 q 660 213 678 288 l 788 213 l 788 176 l 651 176 q 622 73 638 119 q 594 -14 607 26 l 588 -33 l 574 -12 l 581 7 q 606 85 593 43 q 632 176 619 128 l 381 176 q 351 73 365 119 q 322 -14 336 26 l 317 -33 l 301 -12 l 308 7 q 334 85 321 43 q 361 176 347 128 l 308 176 l 308 213 l 369 213 q 398 376 388 288 q 404 565 408 464 l 308 565 l 308 601 l 403 601 q 395 679 400 640 q 383 758 390 718 l 399 772 q 412 685 407 726 q 419 601 417 643 l 674 601 q 667 679 671 640 q 654 758 663 718 l 671 772 q 684 685 679 726 q 692 601 689 643 l 788 601 l 788 565 z "},"$":{"ha":928,"x_min":0,"x_max":796,"o":"m 400 -115 q 231 -95 300 -115 q 118 -43 163 -75 q 50 28 74 -11 q 15 108 26 68 q 2 185 4 149 q 0 246 0 221 l 31 265 l 407 75 l 389 38 l 43 211 q 60 106 46 157 q 114 15 75 54 q 221 -49 153 -25 q 400 -72 289 -72 q 542 -57 483 -72 q 641 -18 601 -42 q 703 34 681 6 q 737 90 725 63 q 751 139 749 117 q 754 171 754 161 q 400 396 754 396 q 101 493 190 396 q 54 569 76 519 q 32 693 32 618 l 32 697 l 32 917 l 53 938 l 753 932 l 765 894 l 413 615 l 386 649 l 693 890 l 74 896 l 74 692 q 87 597 74 639 q 132 522 100 554 q 400 438 213 438 q 538 427 468 438 q 665 388 608 417 q 759 306 722 358 q 796 171 796 254 q 793 140 796 164 q 778 83 790 115 q 742 17 767 51 q 674 -47 718 -18 q 563 -96 629 -76 q 400 -115 496 -115 m 322 -278 l 281 -278 l 281 1111 l 322 1111 l 322 -278 m 518 -278 l 476 -278 l 476 1111 l 518 1111 l 518 -278 z "},"%":{"ha":1561,"x_min":0,"x_max":1450,"o":"m 411 -264 l 339 -224 l 1054 1061 l 1126 1021 l 411 -264 m 1124 -278 l 1115 -278 q 1092 -275 1115 -278 q 1033 -260 1068 -272 q 956 -222 997 -247 q 880 -150 915 -196 q 821 -34 844 -104 q 797 138 797 36 q 833 340 797 258 q 919 472 868 422 q 1026 545 969 522 q 1125 571 1082 568 l 1131 489 l 1128 529 l 1131 489 q 1108 485 1128 489 q 1061 470 1089 482 q 1001 435 1033 458 q 942 374 969 413 q 897 277 915 335 q 879 138 879 219 q 897 0 879 56 q 940 -93 914 -56 q 996 -151 965 -131 q 1053 -181 1026 -171 q 1098 -192 1079 -190 q 1119 -194 1117 -194 q 1135 -194 1121 -194 q 1172 -190 1150 -194 q 1219 -172 1193 -185 q 1269 -136 1244 -160 q 1341 -19 1315 -92 q 1363 156 1367 54 q 1343 288 1360 240 q 1311 358 1326 335 l 1156 124 l 1088 169 l 1271 447 l 1322 463 q 1347 447 1328 460 q 1386 401 1365 433 q 1424 310 1407 368 q 1446 161 1442 253 l 1446 157 q 1417 -52 1450 36 q 1324 -197 1385 -140 q 1263 -241 1294 -225 q 1205 -265 1232 -257 q 1156 -276 1178 -274 q 1124 -278 1135 -278 m 328 263 l 319 263 q 294 265 318 263 q 235 281 271 268 q 159 319 200 293 q 83 390 118 344 q 24 506 47 436 q 0 678 0 576 q 35 881 0 799 q 122 1013 71 963 q 228 1085 172 1063 q 328 1111 285 1108 l 333 1029 l 331 1069 l 335 1029 q 312 1026 332 1029 q 264 1010 292 1022 q 204 976 236 999 q 145 914 172 953 q 100 817 118 875 q 82 678 82 760 q 99 540 82 596 q 142 447 117 485 q 199 390 168 410 q 256 360 229 369 q 301 348 282 350 q 322 346 319 346 q 338 346 324 346 q 374 351 353 346 q 422 369 396 357 q 472 404 447 381 q 544 522 519 449 q 567 696 569 594 q 547 828 564 781 q 515 899 529 875 l 358 664 l 290 710 l 475 988 l 525 1003 q 549 987 531 1000 q 589 941 568 974 q 627 851 610 908 q 649 701 644 793 l 649 697 q 622 488 654 576 q 528 343 589 400 q 467 299 499 315 q 408 275 436 283 q 359 265 381 267 q 328 263 338 263 z "},"&":{"ha":1185,"x_min":0,"x_max":1049,"o":"m 428 -278 q 251 -247 324 -276 q 132 -175 179 -218 q 58 -82 85 -132 q 18 13 31 -32 q 3 90 6 57 q 0 131 0 122 q 6 177 0 139 q 40 269 11 215 q 133 388 69 324 q 313 517 196 453 q 376 556 346 535 l 8 1044 l 42 1111 l 1007 1111 l 1039 1042 q 1012 1012 1035 1038 q 951 946 989 986 q 862 855 913 906 q 752 749 811 804 q 628 638 693 693 q 496 535 563 583 l 839 79 q 902 220 878 149 q 940 350 926 292 q 960 445 954 408 q 965 483 965 482 l 1049 475 q 1042 430 1049 474 q 1019 319 1036 386 q 971 169 1001 251 q 893 7 940 86 l 1040 -189 l 974 -240 l 843 -65 q 766 -150 808 -111 q 672 -218 724 -189 q 560 -263 621 -247 q 428 -278 499 -279 m 426 488 q 389 465 407 476 q 351 443 371 454 q 194 333 249 388 q 115 235 140 279 q 87 164 90 192 q 83 133 83 136 l 83 131 q 85 102 83 126 q 96 42 86 78 q 126 -35 106 6 q 185 -110 146 -75 q 283 -169 224 -146 q 429 -194 342 -193 q 544 -181 492 -196 q 642 -138 597 -165 q 724 -75 688 -111 q 792 3 761 -39 l 426 488 m 125 1028 l 446 603 q 583 711 515 653 q 713 827 651 769 q 825 938 774 885 q 913 1028 876 990 l 125 1028 z "},"'":{"ha":499,"x_min":235,"x_max":385,"o":"m 235 1103 q 255 1111 235 1103 q 299 1141 275 1119 q 343 1200 324 1163 q 363 1296 363 1238 l 385 1296 q 363 1176 385 1222 q 313 1103 340 1129 q 263 1067 286 1076 q 238 1057 239 1057 l 235 1103 z "},"(":{"ha":379,"x_min":-6,"x_max":243,"o":"m 90 -278 q 31 -182 51 -249 q 2 -26 10 -115 q -1 170 -6 64 q 16 385 4 276 q 46 597 28 493 q 83 785 64 700 q 235 1111 157 1096 l 243 1067 q 226 1052 238 1065 q 201 1006 215 1039 q 167 918 186 974 q 128 775 149 863 q 63 415 83 588 q 44 106 43 243 q 64 -124 44 -32 q 118 -242 83 -215 l 90 -278 z "},")":{"ha":400,"x_min":0,"x_max":246,"o":"m 125 -242 q 179 -124 160 -215 q 199 106 199 -32 q 180 415 200 243 q 117 775 160 588 q 78 918 96 863 q 44 1006 60 974 q 17 1052 28 1039 q 0 1067 6 1065 l 8 1111 q 160 785 86 1096 q 195 606 178 707 q 224 396 213 504 q 241 179 236 288 q 239 -21 246 71 q 212 -181 232 -112 q 153 -278 192 -249 l 125 -242 z "},"*":{"ha":578,"x_min":78,"x_max":422,"o":"m 422 842 l 347 842 l 400 785 l 343 725 l 290 782 l 290 703 l 210 703 l 210 782 l 157 725 l 100 785 l 154 842 l 78 842 l 78 925 l 154 925 l 100 982 l 157 1040 l 210 985 l 210 1064 l 290 1064 l 290 985 l 343 1040 l 400 982 l 347 925 l 422 925 l 422 842 z "},"+":{"ha":1167,"x_min":567,"x_max":1028,"o":"m 1028 33 l 851 33 l 851 -167 l 744 -167 l 744 33 l 567 33 l 567 154 l 744 154 l 744 356 l 851 356 l 851 154 l 1028 154 l 1028 33 z "},",":{"ha":443,"x_min":6,"x_max":268,"o":"m 267 -331 l 250 -331 l 182 -507 l 6 -458 l 93 -233 l 94 -233 l 94 -185 l 267 -185 l 267 -281 l 268 -281 l 267 -285 l 267 -331 z "},"-":{"ha":857,"x_min":10,"x_max":693,"o":"m 10 213 l 693 213 l 693 114 q 692 45 693 76 q 693 13 692 14 l 10 13 l 10 213 z "},".":{"ha":479,"x_min":96,"x_max":307,"o":"m 307 -274 l 96 -274 l 96 -153 l 96 -35 l 307 -35 l 307 -274 z "},"/":{"ha":786,"x_min":0,"x_max":679,"o":"m 35 -278 l 0 -261 l 644 1111 l 679 1094 l 35 -278 z "},":":{"ha":408,"x_min":92,"x_max":250,"o":"m 250 254 l 99 254 l 99 382 l 250 382 l 250 254 m 244 -1 l 93 -1 q 93 24 92 1 q 95 70 94 46 q 97 113 96 94 q 93 126 97 132 l 244 126 l 244 -1 z "},";":{"ha":408,"x_min":35,"x_max":243,"o":"m 239 -465 l 225 -465 l 172 -586 l 35 -554 l 103 -399 l 103 -399 l 103 -365 l 239 -365 l 239 -431 l 239 -431 l 239 -433 l 239 -465 m 243 -164 l 243 -264 l 108 -264 l 108 -164 l 243 -164 z "},"<":{"ha":853,"x_min":229,"x_max":713,"o":"m 657 -44 l 229 283 l 243 329 q 394 378 325 350 q 517 436 464 407 q 603 492 569 465 q 650 539 638 519 l 713 513 q 660 460 696 489 q 572 401 624 431 q 457 342 521 371 q 318 292 393 314 l 706 -6 l 657 -44 z "},"=":{"ha":1039,"x_min":125,"x_max":924,"o":"m 924 363 l 129 363 l 129 514 l 924 514 l 924 363 m 924 4 l 129 4 q 134 17 135 -4 q 131 67 133 38 q 126 124 128 96 q 129 156 125 151 l 924 156 l 924 4 z "},">":{"ha":882,"x_min":296,"x_max":754,"o":"m 347 -83 l 301 -43 l 669 269 q 538 323 599 293 q 428 384 476 353 q 345 447 379 415 q 296 503 311 478 l 353 529 q 399 480 365 508 q 482 421 432 451 q 597 360 532 390 q 742 308 663 331 l 754 261 l 347 -83 z "},"?":{"ha":736,"x_min":0,"x_max":682,"o":"m 225 64 q 224 99 225 67 q 230 176 224 131 q 253 274 236 222 q 307 368 271 326 q 342 407 322 388 q 383 449 361 426 q 457 523 419 483 q 526 606 494 563 q 577 696 557 649 q 597 793 597 743 q 568 901 597 857 q 495 974 539 946 q 400 1014 451 1001 q 304 1026 349 1026 q 197 1006 249 1026 q 110 965 146 986 l 456 785 l 417 710 l 7 924 l 0 994 q 28 1015 1 996 q 96 1055 54 1033 q 192 1094 138 1076 q 304 1111 246 1111 q 440 1090 372 1111 q 562 1029 508 1069 q 649 930 615 989 q 682 793 682 871 q 659 672 682 729 q 601 565 636 615 q 523 469 565 514 q 443 388 481 425 q 404 349 422 368 q 372 314 386 329 q 335 251 349 286 q 316 181 322 215 q 308 116 310 146 q 308 69 307 86 l 225 64 m 271 -236 l 271 -208 l 299 -208 l 299 -236 l 271 -236 m 340 -167 l 229 -167 l 229 -278 l 340 -278 l 340 -167 z "},"A":{"ha":1261,"x_min":0,"x_max":1147,"o":"m 936 -278 l 836 -278 l 828 -276 q 751 -273 800 -276 q 639 -255 701 -269 q 505 -210 576 -240 q 361 -125 433 -181 q 269 -26 306 -83 q 211 82 233 31 l 78 -251 l 0 -219 l 538 1111 l 615 1111 l 1147 -219 l 1108 -278 l 936 -278 m 271 160 q 291 108 279 136 q 320 49 303 79 q 360 -9 338 19 q 411 -58 383 -37 q 540 -134 475 -107 q 660 -174 604 -161 q 761 -190 717 -187 q 831 -193 806 -193 l 839 -194 l 1047 -194 l 576 983 l 276 243 q 363 243 313 243 q 467 243 413 243 q 578 243 522 243 q 680 243 633 243 q 759 243 726 243 q 803 243 792 243 l 803 160 l 271 160 z "},"B":{"ha":1182,"x_min":0,"x_max":1053,"o":"m 622 -278 l 40 -278 l 0 -237 l 0 272 l 82 272 l 82 -196 l 622 -196 q 767 -176 707 -196 q 865 -124 826 -156 q 924 -57 903 -93 q 956 10 946 -21 q 969 61 967 40 q 971 83 971 82 l 971 406 l 40 406 l 18 481 l 836 1029 l 40 1029 l 40 1111 l 971 1111 l 993 1036 l 175 488 l 1011 488 l 1053 447 l 1053 82 q 1045 21 1053 57 q 1019 -56 1038 -15 q 969 -135 1000 -96 q 890 -207 938 -175 q 776 -258 842 -239 q 622 -278 710 -278 z "},"C":{"ha":1347,"x_min":-3,"x_max":1254,"o":"m 631 -278 q 306 -185 449 -278 q 75 81 163 -93 q 13 263 28 174 q 1 434 -3 353 q 24 584 6 515 q 62 704 42 653 q 99 786 82 756 q 119 821 117 817 q 149 866 129 838 q 201 926 169 894 q 275 992 232 958 q 375 1051 318 1025 q 503 1094 432 1078 q 663 1111 575 1111 q 811 1096 744 1111 q 931 1057 878 1081 q 1024 1004 985 1033 q 1092 947 1064 975 q 1155 871 1129 910 q 1197 794 1181 832 q 1219 724 1213 757 q 1226 667 1226 692 l 1168 629 l 478 947 l 507 1011 q 383 965 436 994 q 290 901 329 935 q 227 836 251 868 q 190 782 203 804 q 188 776 188 776 q 173 749 188 775 q 140 678 158 724 q 105 569 121 632 q 84 434 89 507 q 92 281 79 361 q 147 118 106 200 q 349 -117 226 -37 q 631 -196 471 -196 l 633 -196 l 639 -196 q 786 -181 725 -196 q 888 -143 847 -167 l 893 -140 q 991 -65 949 -108 q 1065 26 1033 -21 q 1117 119 1096 74 q 1150 202 1138 165 q 1168 262 1163 239 q 1174 286 1174 285 l 1254 275 q 1249 242 1254 271 q 1230 170 1243 214 q 1194 74 1217 126 q 1135 -33 1171 21 q 1049 -133 1099 -86 q 931 -212 999 -181 q 850 -251 893 -237 q 766 -270 807 -264 q 691 -277 725 -276 q 639 -278 657 -278 l 635 -278 l 631 -278 m 525 1015 l 1132 736 q 1081 835 1117 783 q 987 931 1044 888 q 849 1001 929 974 q 663 1029 768 1029 q 591 1026 625 1029 q 525 1015 557 1022 z "},"D":{"ha":1433,"x_min":0,"x_max":1099,"o":"m 42 -278 l 0 -237 l 0 842 l 82 842 l 82 -196 l 471 -196 l 474 -196 q 513 -195 478 -196 q 601 -183 549 -194 q 714 -142 653 -171 q 833 -58 775 -114 q 939 87 892 -1 q 1008 307 986 175 l 1017 1029 l 175 1029 l 753 638 l 707 569 l 18 1036 l 40 1111 l 1057 1111 l 1099 1069 l 1090 296 q 1013 51 1065 150 q 894 -112 960 -49 q 757 -210 828 -176 q 625 -258 686 -243 q 522 -276 564 -274 q 471 -278 479 -278 l 42 -278 z "},"E":{"ha":1297,"x_min":97,"x_max":1033,"o":"m 1011 -276 l 138 -276 l 97 -235 l 97 374 l 138 414 l 450 414 q 313 488 369 446 q 216 574 256 529 q 153 663 176 618 q 117 750 129 708 q 101 826 106 792 q 97 885 97 861 l 97 1071 l 138 1113 l 1014 1113 l 1014 1031 l 179 1031 l 179 885 q 224 698 179 775 q 340 569 269 621 q 499 486 411 517 q 674 440 588 456 q 836 419 761 424 q 957 414 911 414 l 957 332 l 179 332 l 179 -194 l 871 -194 l 313 161 l 357 231 l 1033 -201 l 1011 -276 z "},"F":{"ha":871,"x_min":0,"x_max":876,"o":"m 85 -278 l 0 -278 l 0 347 l 42 390 l 401 390 q 226 517 306 438 q 133 634 171 572 q 69 756 94 696 q 31 871 44 815 q 12 969 18 926 q 5 1039 6 1013 q 4 1069 4 1065 l 46 1111 l 876 1111 l 876 1026 l 90 1026 q 103 940 93 993 q 135 825 113 888 q 194 697 157 763 q 288 575 231 632 q 800 390 472 390 l 800 306 l 85 306 l 85 -278 z "},"G":{"ha":1381,"x_min":0,"x_max":1254,"o":"m 628 -278 q 358 -218 475 -278 q 161 -61 240 -158 q 41 158 82 36 q 0 403 0 279 q 59 734 0 599 q 213 953 118 869 q 428 1074 308 1036 q 669 1111 549 1111 q 880 1078 790 1111 q 1032 994 969 1044 q 1134 885 1094 944 q 1195 776 1174 826 q 1225 691 1217 725 q 1233 656 1233 657 l 1153 643 q 1144 677 1151 647 q 1119 750 1138 707 q 1066 842 1100 793 q 978 932 1032 890 q 849 1001 925 974 q 669 1029 774 1029 q 578 1023 635 1029 q 456 996 521 1017 q 324 934 390 975 q 203 824 257 893 q 116 651 150 754 q 82 403 82 549 q 117 187 82 294 q 222 -6 153 79 q 392 -143 290 -90 q 628 -196 494 -196 q 835 -172 746 -196 q 989 -99 924 -149 l 399 414 l 425 486 l 1213 492 l 1254 451 q 1219 131 1254 265 q 1110 -94 1185 -4 l 1204 -176 l 1150 -237 l 1053 -153 q 628 -278 903 -278 m 533 406 l 1049 -42 q 1140 144 1110 33 q 1172 410 1169 254 l 533 406 z "},"H":{"ha":1261,"x_min":0,"x_max":1100,"o":"m 151 -278 q 73 -276 103 -278 q 38 -274 43 -274 l 0 -232 l 0 1111 l 83 1111 l 83 438 q 219 451 132 440 q 410 488 307 461 q 622 560 514 514 q 817 680 729 606 q 960 860 904 754 q 1015 1111 1015 965 l 1100 1111 l 1100 -236 l 1015 -236 l 1015 88 q 897 -54 969 7 q 712 -172 814 -128 q 508 -239 610 -215 q 312 -270 406 -262 q 151 -278 218 -278 m 83 -192 q 167 -193 114 -193 q 284 -187 219 -193 q 422 -170 349 -182 q 569 -135 496 -158 q 713 -78 643 -112 q 842 8 783 -43 q 1013 351 992 139 l 83 351 l 83 -192 m 532 436 l 1015 436 l 1015 783 q 921 661 975 715 q 803 565 867 607 q 671 490 740 522 q 532 436 601 458 z "},"I":{"ha":347,"x_min":96,"x_max":182,"o":"m 182 -278 l 96 -278 l 96 1111 l 182 1111 l 182 -278 z "},"J":{"ha":978,"x_min":0,"x_max":819,"o":"m 406 -278 q 106 -167 210 -278 q 39 -62 61 -119 q 8 48 17 -6 q 1 146 0 101 q 3 214 1 190 l 3 228 l 46 271 l 528 271 l 528 186 l 85 186 q 85 124 83 161 q 94 46 86 86 q 119 -35 101 6 q 167 -108 136 -75 q 406 -193 246 -193 q 644 -101 563 -193 q 705 1 686 -56 q 730 106 724 57 q 735 189 736 156 q 733 224 733 222 l 733 228 l 733 1111 l 817 1111 l 817 231 q 819 178 818 219 q 811 79 819 136 q 779 -41 803 22 q 707 -157 756 -104 q 406 -278 600 -278 z "},"K":{"ha":1332,"x_min":0,"x_max":1190,"o":"m 88 -278 l 0 -278 l 0 1111 l 88 1111 l 88 -278 m 1190 -278 l 1103 -278 l 1103 199 l 43 199 l 43 286 q 89 288 44 286 q 206 300 133 290 q 369 331 278 310 q 557 392 461 353 q 1064 1111 1057 599 l 1151 1110 q 1091 787 1149 924 q 943 551 1033 650 q 741 389 853 453 q 517 286 629 325 l 1146 286 l 1190 243 l 1190 -278 z "},"L":{"ha":911,"x_min":0,"x_max":868,"o":"m 868 -278 l 42 -278 l 0 -236 l 0 1111 l 85 1111 l 85 -193 l 868 -193 l 868 -278 m 832 -97 q 485 -49 626 -97 q 251 70 343 -1 q 108 226 158 142 q 33 382 57 310 q 5 503 10 454 q 0 553 0 551 l 0 1111 l 85 1111 l 85 553 q 89 503 85 547 q 115 396 93 458 q 182 261 136 333 q 311 128 228 189 q 522 26 394 67 q 832 -14 649 -14 l 832 -97 z "},"M":{"ha":1436,"x_min":0,"x_max":1272,"o":"m 1022 -278 q 815 -254 910 -278 q 636 -189 719 -231 q 458 -254 554 -231 q 250 -278 363 -278 l 42 -278 l 0 -236 l 0 1110 l 85 1111 q 88 1069 85 1108 q 99 962 90 1029 q 124 806 107 894 q 168 620 140 718 q 236 420 196 522 q 333 224 276 318 q 465 47 390 129 q 636 -92 540 -35 q 856 103 765 -15 q 1008 353 947 221 q 1106 620 1069 486 q 1160 863 1142 754 q 1183 1040 1178 971 q 1189 1111 1189 1108 l 1272 1110 l 1272 -236 l 1189 -236 l 1189 608 q 1121 404 1161 508 q 1024 201 1081 300 q 894 16 968 103 q 725 -136 819 -71 q 865 -178 792 -164 q 1022 -193 939 -193 l 1022 -278 m 85 -193 l 250 -193 q 408 -178 335 -193 q 549 -136 482 -164 q 379 16 453 -71 q 249 201 306 103 q 153 404 193 300 q 85 608 113 508 l 85 -193 z "},"N":{"ha":1229,"x_min":0,"x_max":1065,"o":"m 1022 -278 q 760 -240 878 -278 q 548 -136 643 -201 q 379 17 453 -71 q 249 202 306 104 q 153 405 193 300 q 85 608 113 510 l 85 -236 l 0 -236 l 0 1110 l 85 1111 q 89 1053 85 1108 q 106 908 93 997 q 146 704 119 818 q 217 470 172 590 q 327 235 261 350 q 485 27 393 119 q 700 -125 578 -65 q 981 -193 822 -185 l 981 1108 l 1065 1108 l 1065 -236 l 1022 -278 z "},"O":{"ha":1424,"x_min":0,"x_max":1286,"o":"m 643 -278 q 538 -266 601 -278 q 402 -224 474 -254 q 259 -143 331 -193 q 130 -15 188 -93 q 36 169 72 63 q 0 417 0 275 q 32 659 0 554 q 117 841 64 764 q 238 970 171 918 q 377 1053 306 1022 q 518 1098 449 1085 q 643 1111 588 1111 q 772 1099 713 1111 q 876 1070 832 1086 q 944 1041 919 1054 q 972 1026 969 1028 l 931 957 q 908 968 931 957 q 847 993 886 979 q 756 1018 808 1007 q 643 1029 704 1029 q 594 1026 638 1029 q 488 1005 550 1022 q 353 950 425 988 q 222 844 282 913 q 122 672 161 776 q 82 417 82 568 q 123 165 82 268 q 226 -7 164 61 q 360 -113 288 -75 q 495 -169 433 -151 q 599 -192 557 -187 q 643 -196 642 -196 q 687 -192 644 -196 q 791 -172 729 -189 q 926 -116 853 -154 q 1060 -9 999 -78 q 1163 165 1122 60 q 1204 422 1204 269 q 1198 528 1204 481 q 1183 610 1192 575 q 1165 672 1175 646 q 1147 713 1156 697 q 1124 753 1138 731 q 1096 799 1111 776 q 1065 844 1081 822 q 1032 881 1049 865 l 215 471 l 179 544 l 1021 967 l 1064 963 q 1110 917 1086 944 q 1154 860 1133 890 q 1192 800 1175 829 q 1219 750 1208 771 q 1265 626 1243 706 q 1286 422 1286 547 q 1262 210 1286 303 q 1199 49 1238 118 q 1115 -69 1161 -21 q 1024 -150 1068 -118 q 922 -210 975 -186 q 819 -249 869 -235 q 724 -271 769 -264 q 643 -278 678 -278 z "},"P":{"ha":1121,"x_min":0,"x_max":1039,"o":"m 85 -278 l 0 -278 l 0 332 l 42 374 l 522 374 q 539 373 522 374 q 583 374 556 372 q 645 381 610 376 q 717 398 681 386 q 792 428 754 410 q 860 476 829 447 q 956 726 956 565 l 956 1026 l 167 1026 l 732 590 l 681 524 l 17 1036 l 42 1111 l 997 1111 l 1039 1069 l 1039 726 q 917 414 1039 528 q 795 337 861 363 q 671 301 729 311 q 569 290 613 290 q 518 290 526 290 l 85 290 l 85 -278 z "},"Q":{"ha":1371,"x_min":0,"x_max":1228,"o":"m 1194 -278 l 901 -136 q 857 -156 885 -144 q 792 -179 829 -168 q 708 -198 754 -190 q 608 -206 661 -206 q 490 -193 556 -206 q 357 -151 425 -181 q 225 -72 289 -121 q 111 51 161 -22 q 31 223 61 124 q 0 453 0 322 q 23 649 0 563 q 81 799 46 735 q 161 910 117 864 q 247 988 206 957 q 344 1046 294 1022 q 442 1084 394 1069 q 533 1105 490 1099 q 608 1111 575 1111 q 712 1100 650 1111 q 841 1060 774 1089 q 976 983 908 1032 q 1097 861 1043 935 q 1183 685 1150 788 q 1217 447 1217 583 q 1194 247 1217 324 q 1154 136 1172 171 q 1127 88 1143 115 q 1092 31 1111 60 q 1050 -23 1072 3 q 1007 -65 1028 -49 l 965 -69 l 169 332 l 204 401 l 976 13 q 1038 90 1007 43 q 1086 172 1068 138 q 1102 210 1093 186 q 1119 269 1111 235 q 1133 347 1128 303 q 1139 447 1139 392 q 1100 692 1139 592 q 1003 857 1061 792 q 876 958 944 922 q 748 1010 807 993 q 649 1030 689 1026 q 608 1033 610 1033 q 567 1030 607 1033 q 469 1009 528 1026 q 341 956 410 992 q 214 855 272 919 q 117 692 156 790 q 78 453 78 594 q 115 210 78 308 q 210 47 153 111 q 335 -53 268 -18 q 460 -106 401 -89 q 561 -126 519 -122 q 608 -129 603 -129 q 716 -119 667 -129 q 801 -95 765 -108 q 859 -71 838 -82 q 881 -60 881 -60 l 917 -58 l 1228 -208 l 1194 -278 z "},"R":{"ha":1214,"x_min":56,"x_max":1078,"o":"m 139 -239 l 56 -239 l 56 347 l 97 389 l 569 389 q 606 388 571 389 q 692 396 640 388 q 801 426 743 404 q 904 490 858 447 q 996 726 996 575 l 996 1015 l 221 1015 l 776 597 l 726 532 l 72 1024 l 97 1099 l 1014 1099 q 1027 1105 1021 1104 q 1036 1106 1033 1106 q 1066 1097 1058 1106 q 1076 1064 1074 1088 l 1078 1064 l 1078 1057 l 1078 1006 l 1078 726 q 960 429 1078 538 q 840 353 906 379 q 717 317 775 328 q 616 307 658 307 q 565 307 574 307 l 139 307 l 139 -239 m 1026 -283 l 258 303 l 308 369 l 1076 -217 l 1026 -283 z "},"S":{"ha":1175,"x_min":0,"x_max":1057,"o":"m 531 -278 q 326 -256 411 -278 q 182 -199 240 -235 q 88 -115 124 -162 q 32 -13 51 -67 q 6 96 13 40 q 0 203 0 151 l 60 239 l 547 -7 l 510 -79 l 85 135 q 135 -39 94 26 q 236 -139 175 -104 q 373 -185 297 -174 q 531 -196 449 -196 q 710 -177 636 -196 q 834 -129 785 -158 q 911 -64 883 -100 q 953 6 939 -28 q 972 66 968 39 q 975 106 975 93 q 531 382 975 382 q 135 513 261 382 q 100 556 118 531 q 69 614 82 581 q 47 689 56 647 q 40 781 39 731 l 40 785 l 40 1071 l 82 1111 l 988 1103 l 1013 1031 l 556 669 l 506 733 l 871 1022 l 122 1029 l 122 778 q 139 661 122 713 q 194 569 156 610 q 531 464 294 464 q 924 374 790 464 q 1057 106 1057 283 q 1053 64 1057 96 q 1034 -11 1050 32 q 985 -101 1018 -54 q 894 -187 953 -147 q 747 -252 836 -226 q 531 -278 658 -278 z "},"T":{"ha":1135,"x_min":0,"x_max":1050,"o":"m 499 740 q 259 770 353 740 q 111 836 165 800 q 35 903 57 872 q 11 938 13 935 l 88 974 q 169 899 115 932 q 294 847 215 871 q 499 824 374 824 q 692 845 613 824 q 824 898 771 867 q 906 964 876 929 q 949 1026 935 999 l 0 1026 l 0 1111 l 1008 1111 l 1050 1063 q 1042 1033 1049 1058 q 1016 973 1036 1008 q 958 897 996 938 q 860 821 921 856 q 710 763 799 786 q 499 740 622 740 m 542 -278 l 457 -278 l 457 782 l 542 782 l 542 -278 z "},"U":{"ha":1240,"x_min":0,"x_max":1083,"o":"m 542 -278 q 131 -119 272 -278 q 69 -31 93 -78 q 30 63 44 17 q 9 151 15 108 q 1 229 3 194 q 1 288 0 264 q 3 318 1 311 l 3 1111 l 88 1111 l 88 342 l 718 35 l 681 -42 l 85 249 q 91 181 86 219 q 108 101 96 143 q 140 17 119 60 q 194 -62 161 -25 q 542 -193 311 -193 q 889 -62 774 -193 q 962 58 939 -7 q 992 178 985 122 q 998 272 1000 235 q 996 311 996 310 l 996 315 l 996 1111 l 1081 1111 l 1081 318 q 1083 261 1082 307 q 1073 151 1083 215 q 1035 15 1063 88 q 953 -119 1008 -57 q 542 -278 811 -278 z "},"V":{"ha":1265,"x_min":0,"x_max":1151,"o":"m 614 -278 l 536 -278 l 0 1054 l 78 1085 l 246 667 q 274 801 254 731 q 339 943 294 871 q 403 1019 367 989 q 480 1069 440 1050 q 560 1097 519 1088 q 633 1109 600 1106 q 689 1111 665 1113 q 721 1110 713 1110 l 1113 1111 l 1151 1054 l 614 -278 m 319 485 l 575 -150 l 1050 1028 l 718 1025 l 714 1026 q 677 1027 713 1026 q 593 1018 642 1028 q 494 982 544 1008 q 410 901 443 956 q 360 797 378 849 q 335 696 343 744 q 324 602 326 647 q 321 519 322 557 q 320 501 321 510 q 319 485 319 493 z "},"W":{"ha":1822,"x_min":0,"x_max":1710,"o":"m 608 -278 l 532 -278 l 0 1054 l 39 1111 l 636 1110 l 714 1110 l 1103 1111 l 1140 1054 l 914 485 l 1163 -147 l 1632 1085 l 1710 1054 l 1201 -278 l 1124 -278 l 868 372 l 608 -278 m 317 485 l 571 -150 l 824 485 l 613 1024 q 559 1011 588 1019 q 503 989 531 1003 q 450 953 475 975 q 407 901 425 932 q 358 797 375 849 q 332 696 340 744 q 322 602 324 647 q 318 519 319 557 q 317 501 318 510 q 317 485 317 493 m 700 1026 l 869 597 l 1040 1028 l 713 1026 l 707 1026 l 700 1026 m 100 1028 l 244 667 q 272 801 251 731 q 335 943 292 871 q 407 1026 365 993 l 100 1028 z "},"X":{"ha":1222,"x_min":0,"x_max":1082,"o":"m 542 401 q 139 547 276 401 q 65 654 90 599 q 28 758 39 710 q 17 838 18 806 q 17 872 17 869 l 17 1086 l 100 1086 l 100 869 q 101 842 100 868 q 110 777 101 817 q 140 691 119 738 q 200 603 160 644 q 542 483 313 483 l 542 401 m 1024 -278 l 33 -274 l 0 -207 l 469 401 q 144 535 261 414 q 67 644 93 586 q 29 752 40 703 q 17 835 18 801 q 17 872 17 869 l 100 868 q 101 840 100 868 q 111 772 101 813 q 142 683 121 731 q 204 593 163 635 q 533 483 315 479 l 1017 1111 l 1082 1060 l 636 482 q 939 350 828 463 q 1015 240 989 299 q 1053 133 1042 182 q 1065 49 1064 83 q 1065 13 1065 15 l 1065 -236 l 1024 -278 m 117 -190 l 982 -194 l 982 15 q 981 44 982 17 q 972 113 981 72 q 941 202 963 154 q 879 292 919 250 q 574 401 774 400 l 117 -190 z "},"Y":{"ha":1271,"x_min":0,"x_max":1121,"o":"m 529 -278 l 107 -278 l 107 -196 l 529 -196 q 921 -51 789 -196 q 988 49 964 -4 q 1023 152 1011 103 q 1037 242 1035 201 q 1039 304 1039 283 l 0 1044 l 47 1111 l 1039 406 l 1039 1078 l 1121 1078 l 1121 328 q 1121 272 1121 317 q 1110 164 1121 226 q 1069 29 1099 101 q 982 -107 1040 -43 q 529 -278 825 -278 z "},"Z":{"ha":1103,"x_min":0,"x_max":1033,"o":"m 1004 -278 l 40 -278 l 0 -237 q 365 850 0 497 q 497 956 431 913 q 629 1029 564 1000 l 90 1029 l 90 1111 l 975 1111 l 992 1111 l 990 1029 l 981 1029 q 903 1023 961 1029 q 767 993 846 1017 q 598 921 689 969 q 421 789 507 872 q 172 383 257 629 q 82 -196 88 138 l 904 -196 l 611 93 l 668 151 l 1033 -207 l 1004 -278 z "},"[":{"ha":335,"x_min":0,"x_max":199,"o":"m 0 1111 l 199 1111 l 199 1068 l 43 1068 l 43 -235 l 199 -235 l 199 -278 l 0 -278 l 0 1111 z "},"\\":{"ha":781,"x_min":0,"x_max":679,"o":"m 0 1094 l 35 1111 l 679 -261 l 644 -278 l 0 1094 z "},"]":{"ha":364,"x_min":0,"x_max":199,"o":"m 199 -278 l 0 -278 l 0 -235 l 156 -235 l 156 1068 l 0 1068 l 0 1111 l 199 1111 l 199 -278 z "},"^":{"ha":890,"x_min":146,"x_max":954,"o":"m 600 1522 l 663 1511 q 732 1399 693 1450 q 812 1308 771 1347 q 890 1242 853 1268 q 954 1207 928 1217 l 918 1161 q 844 1200 885 1174 q 763 1265 804 1226 q 683 1351 722 1303 q 613 1456 643 1400 l 199 1165 l 146 1201 l 600 1522 z "},"a":{"ha":1261,"x_min":0,"x_max":1147,"o":"m 936 -278 l 836 -278 l 828 -276 q 751 -273 800 -276 q 639 -255 701 -269 q 505 -210 576 -240 q 361 -125 433 -181 q 269 -26 306 -83 q 211 82 233 31 l 78 -251 l 0 -219 l 538 1111 l 615 1111 l 1147 -219 l 1108 -278 l 936 -278 m 271 160 q 291 108 279 136 q 320 49 303 79 q 360 -9 338 19 q 411 -58 383 -37 q 540 -134 475 -107 q 660 -174 604 -161 q 761 -190 717 -187 q 831 -193 806 -193 l 839 -194 l 1047 -194 l 576 983 l 276 243 q 363 243 313 243 q 467 243 413 243 q 578 243 522 243 q 680 243 633 243 q 759 243 726 243 q 803 243 792 243 l 803 160 l 271 160 z "},"b":{"ha":1182,"x_min":0,"x_max":1053,"o":"m 622 -278 l 40 -278 l 0 -237 l 0 272 l 82 272 l 82 -196 l 622 -196 q 767 -176 707 -196 q 865 -124 826 -156 q 924 -57 903 -93 q 956 10 946 -21 q 969 61 967 40 q 971 83 971 82 l 971 406 l 40 406 l 18 481 l 836 1029 l 40 1029 l 40 1111 l 971 1111 l 993 1036 l 175 488 l 1011 488 l 1053 447 l 1053 82 q 1045 21 1053 57 q 1019 -56 1038 -15 q 969 -135 1000 -96 q 890 -207 938 -175 q 776 -258 842 -239 q 622 -278 710 -278 z "},"c":{"ha":1347,"x_min":-3,"x_max":1254,"o":"m 631 -278 q 306 -185 449 -278 q 75 81 163 -93 q 13 263 28 174 q 1 434 -3 353 q 24 584 6 515 q 62 704 42 653 q 99 786 82 756 q 119 821 117 817 q 149 866 129 838 q 201 926 169 894 q 275 992 232 958 q 375 1051 318 1025 q 503 1094 432 1078 q 663 1111 575 1111 q 811 1096 744 1111 q 931 1057 878 1081 q 1024 1004 985 1033 q 1092 947 1064 975 q 1155 871 1129 910 q 1197 794 1181 832 q 1219 724 1213 757 q 1226 667 1226 692 l 1168 629 l 478 947 l 507 1011 q 383 965 436 994 q 290 901 329 935 q 227 836 251 868 q 190 782 203 804 q 188 776 188 776 q 173 749 188 775 q 140 678 158 724 q 105 569 121 632 q 84 434 89 507 q 92 281 79 361 q 147 118 106 200 q 349 -117 226 -37 q 631 -196 471 -196 l 633 -196 l 639 -196 q 786 -181 725 -196 q 888 -143 847 -167 l 893 -140 q 991 -65 949 -108 q 1065 26 1033 -21 q 1117 119 1096 74 q 1150 202 1138 165 q 1168 262 1163 239 q 1174 286 1174 285 l 1254 275 q 1249 242 1254 271 q 1230 170 1243 214 q 1194 74 1217 126 q 1135 -33 1171 21 q 1049 -133 1099 -86 q 931 -212 999 -181 q 850 -251 893 -237 q 766 -270 807 -264 q 691 -277 725 -276 q 639 -278 657 -278 l 635 -278 l 631 -278 m 525 1015 l 1132 736 q 1081 835 1117 783 q 987 931 1044 888 q 849 1001 929 974 q 663 1029 768 1029 q 591 1026 625 1029 q 525 1015 557 1022 z "},"d":{"ha":1250,"x_min":0,"x_max":1099,"o":"m 42 -278 l 0 -237 l 0 842 l 82 842 l 82 -196 l 471 -196 l 474 -196 q 513 -195 478 -196 q 601 -183 549 -194 q 714 -142 653 -171 q 833 -58 775 -114 q 939 87 892 -1 q 1008 307 986 175 l 1017 1029 l 175 1029 l 753 638 l 707 569 l 18 1036 l 40 1111 l 1057 1111 l 1099 1069 l 1090 296 q 1013 51 1065 150 q 894 -112 960 -49 q 757 -210 828 -176 q 625 -258 686 -243 q 522 -276 564 -274 q 471 -278 479 -278 l 42 -278 z "},"e":{"ha":1011,"x_min":0,"x_max":936,"o":"m 914 -278 l 40 -278 l 0 -237 l 0 372 l 40 413 l 353 413 q 215 486 272 444 q 119 572 158 528 q 56 662 79 617 q 20 749 32 707 q 4 825 8 790 q 0 883 0 860 l 0 1069 l 40 1111 l 918 1111 l 918 1029 l 82 1029 l 82 883 q 127 697 82 774 q 243 567 172 619 q 403 485 314 515 q 578 438 492 454 q 740 417 664 422 q 861 413 815 413 l 861 331 l 82 331 l 82 -196 l 774 -196 l 217 160 l 260 229 l 936 -203 l 914 -278 z "},"f":{"ha":871,"x_min":0,"x_max":876,"o":"m 85 -278 l 0 -278 l 0 347 l 42 390 l 401 390 q 226 517 306 438 q 133 634 171 572 q 69 756 94 696 q 31 871 44 815 q 12 969 18 926 q 5 1039 6 1013 q 4 1069 4 1065 l 46 1111 l 876 1111 l 876 1026 l 90 1026 q 103 940 93 993 q 135 825 113 888 q 194 697 157 763 q 288 575 231 632 q 800 390 472 390 l 800 306 l 85 306 l 85 -278 z "},"g":{"ha":1381,"x_min":0,"x_max":1254,"o":"m 628 -278 q 358 -218 475 -278 q 161 -61 240 -158 q 41 158 82 36 q 0 403 0 279 q 59 734 0 599 q 213 953 118 869 q 428 1074 308 1036 q 669 1111 549 1111 q 880 1078 790 1111 q 1032 994 969 1044 q 1134 885 1094 944 q 1195 776 1174 826 q 1225 691 1217 725 q 1233 656 1233 657 l 1153 643 q 1144 677 1151 647 q 1119 750 1138 707 q 1066 842 1100 793 q 978 932 1032 890 q 849 1001 925 974 q 669 1029 774 1029 q 578 1023 635 1029 q 456 996 521 1017 q 324 934 390 975 q 203 824 257 893 q 116 651 150 754 q 82 403 82 549 q 117 187 82 294 q 222 -6 153 79 q 392 -143 290 -90 q 628 -196 494 -196 q 835 -172 746 -196 q 989 -99 924 -149 l 399 414 l 425 486 l 1213 492 l 1254 451 q 1219 131 1254 265 q 1110 -94 1185 -4 l 1204 -176 l 1150 -237 l 1053 -153 q 628 -278 903 -278 m 533 406 l 1049 -42 q 1140 144 1110 33 q 1172 410 1169 254 l 533 406 z "},"h":{"ha":1261,"x_min":0,"x_max":1100,"o":"m 151 -278 q 73 -276 103 -278 q 38 -274 43 -274 l 0 -232 l 0 1111 l 83 1111 l 83 438 q 219 451 132 440 q 410 488 307 461 q 622 560 514 514 q 817 680 729 606 q 960 860 904 754 q 1015 1111 1015 965 l 1100 1111 l 1100 -236 l 1015 -236 l 1015 88 q 897 -54 969 7 q 712 -172 814 -128 q 508 -239 610 -215 q 312 -270 406 -262 q 151 -278 218 -278 m 83 -192 q 167 -193 114 -193 q 284 -187 219 -193 q 422 -170 349 -182 q 569 -135 496 -158 q 713 -78 643 -112 q 842 8 783 -43 q 1013 351 992 139 l 83 351 l 83 -192 m 532 436 l 1015 436 l 1015 783 q 921 661 975 715 q 803 565 867 607 q 671 490 740 522 q 532 436 601 458 z "},"i":{"ha":347,"x_min":96,"x_max":182,"o":"m 182 -278 l 96 -278 l 96 1111 l 182 1111 l 182 -278 z "},"j":{"ha":978,"x_min":0,"x_max":819,"o":"m 406 -278 q 106 -167 210 -278 q 39 -62 61 -119 q 8 48 17 -6 q 1 146 0 101 q 3 214 1 190 l 3 228 l 46 271 l 528 271 l 528 186 l 85 186 q 85 124 83 161 q 94 46 86 86 q 119 -35 101 6 q 167 -108 136 -75 q 406 -193 246 -193 q 644 -101 563 -193 q 705 1 686 -56 q 730 106 724 57 q 735 189 736 156 q 733 224 733 222 l 733 228 l 733 1111 l 817 1111 l 817 231 q 819 178 818 219 q 811 79 819 136 q 779 -41 803 22 q 707 -157 756 -104 q 406 -278 600 -278 z "},"k":{"ha":1332,"x_min":0,"x_max":1190,"o":"m 88 -278 l 0 -278 l 0 1111 l 88 1111 l 88 -278 m 1190 -278 l 1103 -278 l 1103 199 l 43 199 l 43 286 q 89 288 44 286 q 206 300 133 290 q 369 331 278 310 q 557 392 461 353 q 1064 1111 1057 599 l 1151 1110 q 1091 787 1149 924 q 943 551 1033 650 q 741 389 853 453 q 517 286 629 325 l 1146 286 l 1190 243 l 1190 -278 z "},"l":{"ha":911,"x_min":0,"x_max":868,"o":"m 868 -278 l 42 -278 l 0 -236 l 0 1111 l 85 1111 l 85 -193 l 868 -193 l 868 -278 m 832 -97 q 485 -49 626 -97 q 251 70 343 -1 q 108 226 158 142 q 33 382 57 310 q 5 503 10 454 q 0 553 0 551 l 0 1111 l 85 1111 l 85 553 q 89 503 85 547 q 115 396 93 458 q 182 261 136 333 q 311 128 228 189 q 522 26 394 67 q 832 -14 649 -14 l 832 -97 z "},"m":{"ha":1436,"x_min":0,"x_max":1272,"o":"m 1022 -278 q 815 -254 910 -278 q 636 -189 719 -231 q 458 -254 554 -231 q 250 -278 363 -278 l 42 -278 l 0 -236 l 0 1110 l 85 1111 q 88 1069 85 1108 q 99 962 90 1029 q 124 806 107 894 q 168 620 140 718 q 236 420 196 522 q 333 224 276 318 q 465 47 390 129 q 636 -92 540 -35 q 856 103 765 -15 q 1008 353 947 221 q 1106 620 1069 486 q 1160 863 1142 754 q 1183 1040 1178 971 q 1189 1111 1189 1108 l 1272 1110 l 1272 -236 l 1189 -236 l 1189 608 q 1121 404 1161 508 q 1024 201 1081 300 q 894 16 968 103 q 725 -136 819 -71 q 865 -178 792 -164 q 1022 -193 939 -193 l 1022 -278 m 85 -193 l 250 -193 q 408 -178 335 -193 q 549 -136 482 -164 q 379 16 453 -71 q 249 201 306 103 q 153 404 193 300 q 85 608 113 508 l 85 -193 z "},"n":{"ha":1229,"x_min":0,"x_max":1065,"o":"m 1022 -278 q 760 -240 878 -278 q 548 -136 643 -201 q 379 17 453 -71 q 249 202 306 104 q 153 405 193 300 q 85 608 113 510 l 85 -236 l 0 -236 l 0 1110 l 85 1111 q 89 1053 85 1108 q 106 908 93 997 q 146 704 119 818 q 217 470 172 590 q 327 235 261 350 q 485 27 393 119 q 700 -125 578 -65 q 981 -193 822 -185 l 981 1108 l 1065 1108 l 1065 -236 l 1022 -278 z "},"o":{"ha":1424,"x_min":0,"x_max":1286,"o":"m 643 -278 q 538 -266 601 -278 q 402 -224 474 -254 q 259 -143 331 -193 q 130 -15 188 -93 q 36 169 72 63 q 0 417 0 275 q 32 659 0 554 q 117 841 64 764 q 238 970 171 918 q 377 1053 306 1022 q 518 1098 449 1085 q 643 1111 588 1111 q 772 1099 713 1111 q 876 1070 832 1086 q 944 1041 919 1054 q 972 1026 969 1028 l 931 957 q 908 968 931 957 q 847 993 886 979 q 756 1018 808 1007 q 643 1029 704 1029 q 594 1026 638 1029 q 488 1005 550 1022 q 353 950 425 988 q 222 844 282 913 q 122 672 161 776 q 82 417 82 568 q 123 165 82 268 q 226 -7 164 61 q 360 -113 288 -75 q 495 -169 433 -151 q 599 -192 557 -187 q 643 -196 642 -196 q 687 -192 644 -196 q 791 -172 729 -189 q 926 -116 853 -154 q 1060 -9 999 -78 q 1163 165 1122 60 q 1204 422 1204 269 q 1198 528 1204 481 q 1183 610 1192 575 q 1165 672 1175 646 q 1147 713 1156 697 q 1124 753 1138 731 q 1096 799 1111 776 q 1065 844 1081 822 q 1032 881 1049 865 l 215 471 l 179 544 l 1021 967 l 1064 963 q 1110 917 1086 944 q 1154 860 1133 890 q 1192 800 1175 829 q 1219 750 1208 771 q 1265 626 1243 706 q 1286 422 1286 547 q 1262 210 1286 303 q 1199 49 1238 118 q 1115 -69 1161 -21 q 1024 -150 1068 -118 q 922 -210 975 -186 q 819 -249 869 -235 q 724 -271 769 -264 q 643 -278 678 -278 z "},"p":{"ha":1121,"x_min":0,"x_max":1039,"o":"m 85 -278 l 0 -278 l 0 332 l 42 374 l 522 374 q 539 373 522 374 q 583 374 556 372 q 645 381 610 376 q 717 398 681 386 q 792 428 754 410 q 860 476 829 447 q 956 726 956 565 l 956 1026 l 167 1026 l 732 590 l 681 524 l 17 1036 l 42 1111 l 997 1111 l 1039 1069 l 1039 726 q 917 414 1039 528 q 795 337 861 363 q 671 301 729 311 q 569 290 613 290 q 518 290 526 290 l 85 290 l 85 -278 z "},"q":{"ha":1371,"x_min":0,"x_max":1228,"o":"m 1194 -278 l 901 -136 q 857 -156 885 -144 q 792 -179 829 -168 q 708 -198 754 -190 q 608 -206 661 -206 q 490 -193 556 -206 q 357 -151 425 -181 q 225 -72 289 -121 q 111 51 161 -22 q 31 223 61 124 q 0 453 0 322 q 23 649 0 563 q 81 799 46 735 q 161 910 117 864 q 247 988 206 957 q 344 1046 294 1022 q 442 1084 394 1069 q 533 1105 490 1099 q 608 1111 575 1111 q 712 1100 650 1111 q 841 1060 774 1089 q 976 983 908 1032 q 1097 861 1043 935 q 1183 685 1150 788 q 1217 447 1217 583 q 1194 247 1217 324 q 1154 136 1172 171 q 1127 88 1143 115 q 1092 31 1111 60 q 1050 -23 1072 3 q 1007 -65 1028 -49 l 965 -69 l 169 332 l 204 401 l 976 13 q 1038 90 1007 43 q 1086 172 1068 138 q 1102 210 1093 186 q 1119 269 1111 235 q 1133 347 1128 303 q 1139 447 1139 392 q 1100 692 1139 592 q 1003 857 1061 792 q 876 958 944 922 q 748 1010 807 993 q 649 1030 689 1026 q 608 1033 610 1033 q 567 1030 607 1033 q 469 1009 528 1026 q 341 956 410 992 q 214 855 272 919 q 117 692 156 790 q 78 453 78 594 q 115 210 78 308 q 210 47 153 111 q 335 -53 268 -18 q 460 -106 401 -89 q 561 -126 519 -122 q 608 -129 603 -129 q 716 -119 667 -129 q 801 -95 765 -108 q 859 -71 838 -82 q 881 -60 881 -60 l 917 -58 l 1228 -208 l 1194 -278 z "},"r":{"ha":1214,"x_min":56,"x_max":1078,"o":"m 139 -239 l 56 -239 l 56 347 l 97 389 l 569 389 q 606 388 571 389 q 692 396 640 388 q 801 426 743 404 q 904 490 858 447 q 996 726 996 575 l 996 1015 l 221 1015 l 776 597 l 726 532 l 72 1024 l 97 1099 l 1014 1099 q 1027 1105 1021 1104 q 1036 1106 1033 1106 q 1066 1097 1058 1106 q 1076 1064 1074 1088 l 1078 1064 l 1078 1057 l 1078 1006 l 1078 726 q 960 429 1078 538 q 840 353 906 379 q 717 317 775 328 q 616 307 658 307 q 565 307 574 307 l 139 307 l 139 -239 m 1026 -283 l 258 303 l 308 369 l 1076 -217 l 1026 -283 z "},"s":{"ha":1175,"x_min":0,"x_max":1057,"o":"m 531 -278 q 326 -256 411 -278 q 182 -199 240 -235 q 88 -115 124 -162 q 32 -13 51 -67 q 6 96 13 40 q 0 203 0 151 l 60 239 l 547 -7 l 510 -79 l 85 135 q 135 -39 94 26 q 236 -139 175 -104 q 373 -185 297 -174 q 531 -196 449 -196 q 710 -177 636 -196 q 834 -129 785 -158 q 911 -64 883 -100 q 953 6 939 -28 q 972 66 968 39 q 975 106 975 93 q 531 382 975 382 q 135 513 261 382 q 100 556 118 531 q 69 614 82 581 q 47 689 56 647 q 40 781 39 731 l 40 785 l 40 1071 l 82 1111 l 988 1103 l 1013 1031 l 556 669 l 506 733 l 871 1022 l 122 1029 l 122 778 q 139 661 122 713 q 194 569 156 610 q 531 464 294 464 q 924 374 790 464 q 1057 106 1057 283 q 1053 64 1057 96 q 1034 -11 1050 32 q 985 -101 1018 -54 q 894 -187 953 -147 q 747 -252 836 -226 q 531 -278 658 -278 z "},"t":{"ha":1135,"x_min":0,"x_max":1050,"o":"m 499 740 q 259 770 353 740 q 111 836 165 800 q 35 903 57 872 q 11 938 13 935 l 88 974 q 169 899 115 932 q 294 847 215 871 q 499 824 374 824 q 692 845 613 824 q 824 898 771 867 q 906 964 876 929 q 949 1026 935 999 l 0 1026 l 0 1111 l 1008 1111 l 1050 1063 q 1042 1033 1049 1058 q 1016 973 1036 1008 q 958 897 996 938 q 860 821 921 856 q 710 763 799 786 q 499 740 622 740 m 542 -278 l 457 -278 l 457 782 l 542 782 l 542 -278 z "},"u":{"ha":1240,"x_min":0,"x_max":1083,"o":"m 542 -278 q 131 -119 272 -278 q 69 -31 93 -78 q 30 63 44 17 q 9 151 15 108 q 1 229 3 194 q 1 288 0 264 q 3 318 1 311 l 3 1111 l 88 1111 l 88 342 l 718 35 l 681 -42 l 85 249 q 91 181 86 219 q 108 101 96 143 q 140 17 119 60 q 194 -62 161 -25 q 542 -193 311 -193 q 889 -62 774 -193 q 962 58 939 -7 q 992 178 985 122 q 998 272 1000 235 q 996 311 996 310 l 996 315 l 996 1111 l 1081 1111 l 1081 318 q 1083 261 1082 307 q 1073 151 1083 215 q 1035 15 1063 88 q 953 -119 1008 -57 q 542 -278 811 -278 z "},"v":{"ha":1265,"x_min":0,"x_max":1151,"o":"m 614 -278 l 536 -278 l 0 1054 l 78 1085 l 246 667 q 274 801 254 731 q 339 943 294 871 q 403 1019 367 989 q 480 1069 440 1050 q 560 1097 519 1088 q 633 1109 600 1106 q 689 1111 665 1113 q 721 1110 713 1110 l 1113 1111 l 1151 1054 l 614 -278 m 319 485 l 575 -150 l 1050 1028 l 718 1025 l 714 1026 q 677 1027 713 1026 q 593 1018 642 1028 q 494 982 544 1008 q 410 901 443 956 q 360 797 378 849 q 335 696 343 744 q 324 602 326 647 q 321 519 322 557 q 320 501 321 510 q 319 485 319 493 z "},"w":{"ha":1822,"x_min":0,"x_max":1710,"o":"m 608 -278 l 532 -278 l 0 1054 l 39 1111 l 636 1110 l 714 1110 l 1103 1111 l 1140 1054 l 914 485 l 1163 -147 l 1632 1085 l 1710 1054 l 1201 -278 l 1124 -278 l 868 372 l 608 -278 m 317 485 l 571 -150 l 824 485 l 613 1024 q 559 1011 588 1019 q 503 989 531 1003 q 450 953 475 975 q 407 901 425 932 q 358 797 375 849 q 332 696 340 744 q 322 602 324 647 q 318 519 319 557 q 317 501 318 510 q 317 485 317 493 m 700 1026 l 869 597 l 1040 1028 l 713 1026 l 707 1026 l 700 1026 m 100 1028 l 244 667 q 272 801 251 731 q 335 943 292 871 q 407 1026 365 993 l 100 1028 z "},"x":{"ha":1174,"x_min":0,"x_max":1082,"o":"m 542 401 q 139 547 276 401 q 65 654 90 599 q 28 758 39 710 q 17 838 18 806 q 17 872 17 869 l 17 1086 l 100 1086 l 100 869 q 101 842 100 868 q 110 777 101 817 q 140 691 119 738 q 200 603 160 644 q 542 483 313 483 l 542 401 m 1024 -278 l 33 -274 l 0 -207 l 469 401 q 144 535 261 414 q 67 644 93 586 q 29 752 40 703 q 17 835 18 801 q 17 872 17 869 l 100 868 q 101 840 100 868 q 111 772 101 813 q 142 683 121 731 q 204 593 163 635 q 533 483 315 479 l 1017 1111 l 1082 1060 l 636 482 q 939 350 828 463 q 1015 240 989 299 q 1053 133 1042 182 q 1065 49 1064 83 q 1065 13 1065 15 l 1065 -236 l 1024 -278 m 117 -190 l 982 -194 l 982 15 q 981 44 982 17 q 972 113 981 72 q 941 202 963 154 q 879 292 919 250 q 574 401 774 400 l 117 -190 z "},"y":{"ha":1271,"x_min":0,"x_max":1121,"o":"m 529 -278 l 107 -278 l 107 -196 l 529 -196 q 921 -51 789 -196 q 988 49 964 -4 q 1023 152 1011 103 q 1037 242 1035 201 q 1039 304 1039 283 l 0 1044 l 47 1111 l 1039 406 l 1039 1078 l 1121 1078 l 1121 328 q 1121 272 1121 317 q 1110 164 1121 226 q 1069 29 1099 101 q 982 -107 1040 -43 q 529 -278 825 -278 z "},"z":{"ha":1103,"x_min":0,"x_max":1033,"o":"m 1004 -278 l 40 -278 l 0 -237 q 365 850 0 497 q 497 956 431 913 q 629 1029 564 1000 l 90 1029 l 90 1111 l 975 1111 l 992 1111 l 990 1029 l 981 1029 q 903 1023 961 1029 q 767 993 846 1017 q 598 921 689 969 q 421 789 507 872 q 172 383 257 629 q 82 -196 88 138 l 904 -196 l 611 93 l 668 151 l 1033 -207 l 1004 -278 z "},"|":{"ha":261,"x_min":0,"x_max":96,"o":"m 96 1111 l 96 628 l 96 206 l 96 -278 l 0 -278 q 4 -156 3 -214 q 6 -46 6 -99 q 6 42 6 -1 q 6 119 7 85 q 4 176 6 153 q 0 206 3 200 l 0 628 l 0 1111 l 96 1111 z "},"¡":{"ha":271,"x_min":0,"x_max":163,"o":"m 125 1111 l 82 31 l 38 1111 l 125 1111 m 43 -235 l 43 -158 l 119 -158 l 119 -235 l 43 -235 m 163 -115 l 0 -115 l 0 -278 l 163 -278 l 163 -115 l 163 -115 z "},"¦":{"ha":229,"x_min":0,"x_max":65,"o":"m 65 -278 l 0 -278 l 0 343 l 65 343 l 65 -278 m 25 -253 l 40 -253 l 40 318 l 25 318 l 25 -253 m 65 490 l 0 490 l 0 1111 l 65 1111 l 65 490 m 25 515 l 40 515 l 40 1086 l 25 1086 l 25 515 z "},"¨":{"ha":615,"x_min":0,"x_max":0,"o":""},"´":{"ha":1085,"x_min":744,"x_max":1163,"o":"m 744 1201 q 772 1204 746 1201 q 838 1213 799 1207 q 924 1231 878 1219 q 1008 1258 969 1242 q 1074 1298 1047 1275 q 1100 1351 1100 1321 l 1163 1351 q 1133 1284 1163 1313 q 1060 1235 1104 1256 q 964 1201 1015 1214 q 867 1179 913 1188 q 789 1167 821 1171 q 753 1164 757 1164 l 744 1201 z "},"¿":{"ha":875,"x_min":0,"x_max":682,"o":"m 453 1000 l 342 1000 l 342 1111 l 453 1111 l 453 1000 m 410 1042 l 410 1069 l 383 1069 l 383 1042 l 410 1042 m 378 -278 q 490 -260 436 -278 q 586 -222 544 -243 q 653 -181 628 -200 q 682 -161 679 -162 l 675 -90 l 265 124 l 225 49 l 572 -132 q 484 -173 536 -153 q 378 -193 432 -193 q 282 -181 333 -193 q 187 -140 231 -168 q 114 -68 143 -112 q 85 40 85 -24 q 105 138 85 90 q 156 228 125 185 q 224 310 186 271 q 297 385 261 350 q 339 426 319 407 q 374 465 358 446 q 426 559 408 507 q 451 657 444 611 q 458 735 458 703 q 457 769 457 767 l 372 764 q 372 717 374 747 q 365 653 371 688 q 345 582 358 618 q 310 519 332 546 q 277 485 296 504 q 239 446 258 465 q 159 364 201 408 q 81 269 117 319 q 23 161 46 218 q 0 40 0 104 q 33 -97 0 -37 q 120 -196 67 -156 q 241 -257 174 -236 q 378 -278 308 -278 z "},"Ñ":{"ha":1010,"x_min":0,"x_max":846,"o":"m 500 1226 l 282 1226 l 282 1299 l 500 1299 q 603 1311 576 1299 q 632 1331 629 1324 q 635 1344 638 1338 q 633 1353 633 1351 l 697 1383 q 701 1374 699 1382 q 706 1353 704 1365 q 705 1325 707 1340 q 693 1293 703 1310 q 500 1226 651 1226 m 794 -317 q 594 -284 683 -317 q 433 -196 504 -251 q 306 -64 361 -140 q 210 99 251 13 q 140 278 169 185 q 89 464 110 372 l 96 -278 l 3 -278 l 0 1111 l 76 1111 q 79 1051 76 1108 q 92 900 82 993 q 121 689 101 807 q 174 447 140 571 q 258 203 208 322 q 380 -12 308 83 q 546 -169 451 -108 q 763 -237 640 -231 l 765 1111 l 846 1111 l 840 -250 l 794 -317 z "},"×":{"ha":1063,"x_min":69,"x_max":921,"o":"m 586 71 l 921 -186 l 864 -282 l 496 1 l 128 -282 l 69 -186 l 404 71 l 69 328 l 128 424 l 496 140 l 864 424 l 921 328 l 586 71 z "},"−":{"ha":13249,"x_min":12725,"x_max":13083,"o":"m 13083 1111 l 13083 -278 l 13083 1111 m 12725 79 l 12725 754 l 12725 79 z "}}}
